<?xml version="1.0" encoding="UTF-8" standalone="no"?>
<!-- Created with Inkscape (http://www.inkscape.org/) -->

<svg
   xmlns:dc="http://purl.org/dc/elements/1.1/"
   xmlns:cc="http://creativecommons.org/ns#"
   xmlns:rdf="http://www.w3.org/1999/02/22-rdf-syntax-ns#"
   xmlns:svg="http://www.w3.org/2000/svg"
   xmlns="http://www.w3.org/2000/svg"
   xmlns:sodipodi="http://sodipodi.sourceforge.net/DTD/sodipodi-0.dtd"
   xmlns:inkscape="http://www.inkscape.org/namespaces/inkscape"
   width="447.3212"
   height="252.20764"
   id="svg2"
   version="1.1"
   inkscape:version="0.48.5 r10040"
   sodipodi:docname="logo.svg">
  <defs
     id="defs4" />
  <sodipodi:namedview
     id="base"
     pagecolor="#ffffff"
     bordercolor="#666666"
     borderopacity="1.0"
     inkscape:pageopacity="0.0"
     inkscape:pageshadow="2"
     inkscape:zoom="2"
     inkscape:cx="236.04658"
     inkscape:cy="125.70599"
     inkscape:document-units="px"
     inkscape:current-layer="g3895"
     showgrid="false"
     inkscape:window-width="1598"
     inkscape:window-height="883"
     inkscape:window-x="0"
     inkscape:window-y="15"
     inkscape:window-maximized="0"
     fit-margin-top="0"
     fit-margin-left="0"
     fit-margin-right="0"
     fit-margin-bottom="0"
     showguides="true"
     inkscape:guide-bbox="true" />
  <metadata
     id="metadata7">
    <rdf:RDF>
      <cc:Work
         rdf:about="">
        <dc:format>image/svg+xml</dc:format>
        <dc:type
           rdf:resource="http://purl.org/dc/dcmitype/StillImage" />
        <dc:title />
      </cc:Work>
    </rdf:RDF>
  </metadata>
  <g
     inkscape:label="Layer 1"
     inkscape:groupmode="layer"
     id="layer1"
     transform="translate(-108.78614,-301.71267)">
    <g
       id="g3828"
       transform="matrix(1.0621972,0,0,0.98899519,-37.457096,-21.333591)">
      <path
         sodipodi:nodetypes="ccccccc"
         inkscape:connector-curvature="0"
         id="path2985-0"
         d="m 194.82869,333.33794 297.3052,-5.05563 6.23133,7.07789 13.96236,189.11298 L 356.79739,581.65491 189.851,522.25235 z"
         style="fill:#803300;stroke:none" />
      <path
         sodipodi:nodetypes="cccccc"
         inkscape:connector-curvature="0"
         id="path2985"
         d="M 191.46447,329.18789 492.70569,326.64088 504.31443,517.77611 353.63937,570.83658 183.45624,515.5553 z"
         style="fill:#ff6600;stroke:none" />
      <path
         sodipodi:nodetypes="cccc"
         inkscape:connector-curvature="0"
         id="path3795"
         d="M 483.0679,328.99948 504.99999,516.6479 179.28571,459.50504 c 12.85714,22.68742 313.78218,-91.93413 303.78219,-130.50556 z"
         style="fill:#000000;fill-opacity:0.04608298;stroke:none" />
    </g>
    <path
       style="fill:#000000;fill-opacity:0.20737329;stroke:none"
       d="m 230,242.20764 1.5,10 L 398.86351,194.86699 382.5,8.20764 378.61889,3.820721 388,189.70764 z"
       id="path3004"
       inkscape:connector-curvature="0"
       transform="translate(108.78614,301.71267)"
       sodipodi:nodetypes="ccccccc" />
    <g
       id="g3834"
       transform="translate(-10.714287,2.1428587)">
      <path
         inkscape:connector-curvature="0"
         id="path3793"
         d="m 167.85714,488.07647 170,21.42857 184.28571,-18.57143 -244.28571,-60 z"
         style="fill:#000000;fill-opacity:0.13824888;stroke:none" />
      <path
         sodipodi:nodetypes="cccccccccc"
         inkscape:connector-curvature="0"
         id="path3755-0"
         d="m 114.00043,374.07646 11.87686,29.35714 4.48317,87.92857 206.11067,-1.07142 224.97058,12.07143 -13.68228,-42.71429 15.5622,-85.5 c -39.66531,-1.42857 -115.49594,-1.78572 -115.49594,-1.78572 l -183.97781,2.21429 z"
         style="fill:#808080;stroke:none" />
      <path
         inkscape:connector-curvature="0"
         id="path3755"
         d="m 130.1996,392.36218 4.37687,35.71428 -2.18844,35.71429 4.37687,21.42857 170.69745,-1.42857 187.61067,7.21429 57.39915,5.35714 -9.75371,-36.85714 9.84792,-78.57143 -106.1388,-2.85715 -252.76353,1.42858 -73.31237,0 z"
         style="fill:#1a1a1a;stroke:none"
         sodipodi:nodetypes="ccccccccccccc" />
    </g>
    <g
       id="g3895"
       transform="translate(-1.5,1)">
      <path
         inkscape:connector-curvature="0"
         id="path3805"
         d="m 139.85714,476.21932 12,0.64286 c 2.57143,-1.52686 2.14286,-28.09524 4.71429,-41.14286 L 164,435.14789 l 4.42857,14.71429 4.71429,-12.85715 7.92857,-2.07142 4.57143,41.35714 c 0,0 10.71428,2.14286 10.35714,0.71428 -0.35714,-1.42857 -10.28571,-84.78571 -10.28571,-84.78571 l -12.92857,0.14286 -5.14286,32.5 -6.78572,-32.64286 -12.42857,1.14286 z"
         style="fill:#e6f4b7;fill-opacity:1;stroke:#000000;stroke-width:1.26125002;stroke-linecap:butt;stroke-linejoin:miter;stroke-miterlimit:4;stroke-opacity:1;stroke-dasharray:5.045, 1.26125;stroke-dashoffset:0"
         sodipodi:nodetypes="ccccccccscccccc" />
      <path
         inkscape:connector-curvature="0"
         id="path3807"
         d="m 203.72292,476.86218 c 0.005,0 23.15701,1.78571 10.9861,0.35714 -1.41883,-0.16654 5.7943,-56.5 5.7943,-56.5 l 7.67791,-0.0714 3.09589,57.78572 11.79431,-0.92857 -9.8287,-88.07143 -18.58861,-0.0714 z"
         style="fill:#e6f4b7;fill-opacity:1;stroke:#000000;stroke-width:1.26125002;stroke-linecap:butt;stroke-linejoin:miter;stroke-miterlimit:4;stroke-opacity:1;stroke-dasharray:5.045, 1.26125;stroke-dashoffset:0"
         sodipodi:nodetypes="csccccccc" />
      <path
         inkscape:connector-curvature="0"
         id="path3809"
         d="m 254.99999,476.6479 11.28572,0.21428 -0.71429,-51.78571 7.78571,-0.21429 10.21429,52.85715 15.71429,0.35714 0.35714,-12.5 -9.35714,-0.35714 -6.85715,-43.64286 11.57143,-8.28571 1.42857,-24.5 -40.57143,0.78571 z"
         style="fill:#e6f4b7;fill-opacity:1;stroke:#000000;stroke-width:1.26125002;stroke-linecap:butt;stroke-linejoin:miter;stroke-miterlimit:4;stroke-opacity:1;stroke-dasharray:5.045, 1.26125;stroke-dashoffset:0"
         sodipodi:nodetypes="ccccccccccccc" />
      <path
         inkscape:connector-curvature="0"
         id="path3811"
         d="m 316.29572,471.93361 24.85153,-0.35714 8.94654,9.28571 9.60926,-2.85714 -12.9228,-13.57143 9.60927,-63.92857 -11.92874,-11.07143 -24.85153,-0.71428 L 310,397.29076 z"
         style="fill:#e6f4b7;fill-opacity:1;stroke:#000000;stroke-width:1.26125002;stroke-linecap:butt;stroke-linejoin:miter;stroke-miterlimit:4;stroke-opacity:1;stroke-dasharray:5.045, 1.26125;stroke-dashoffset:0" />
      <path
         inkscape:connector-curvature="0"
         id="path3813"
         d="m 372.02908,389.57647 13.37295,0.78571 -5.17337,75.71429 25.65113,0.14286 -4.3629,-75.57143 11.99392,0.21428 5.0262,85.5 -51.46558,-0.35714 z"
         style="fill:#e6f4b7;fill-opacity:1;stroke:#000000;stroke-width:1.26125002;stroke-linecap:butt;stroke-linejoin:miter;stroke-miterlimit:4;stroke-opacity:1;stroke-dasharray:5.045, 1.26125;stroke-dashoffset:0"
         sodipodi:nodetypes="ccccccccc" />
      <path
         inkscape:connector-curvature="0"
         id="path3815"
         d="m 431.14286,389.94225 0.21428,89.24488 42.14286,0.67505 -0.28571,-15.97597 -7.78572,-1.18765 -1.35714,8.93822 -23.07143,-1.8627 0,-32.44051 26.78571,0.67506 1.07143,-12.15103 -26.78571,0 -0.0714,-26.81466 32.14286,-0.71281 -0.28572,-9.93822 z"
         style="fill:#e6f4b7;fill-opacity:1;stroke:#000000;stroke-width:1.26125002;stroke-linecap:butt;stroke-linejoin:miter;stroke-miterlimit:4;stroke-opacity:1;stroke-dasharray:5.045, 1.26125;stroke-dashoffset:0"
         sodipodi:nodetypes="ccccccccccccccc" />
      <path
         inkscape:connector-curvature="0"
         id="path3817"
         d="m 485.78572,388.7877 -2.92858,91.22346 41.57143,2.20817 -0.14285,-11.46301 -31.07143,0.45331 0.71428,-33.175 12.42857,0.67705 0.14286,6.90076 6.78572,-0.66148 1.07142,-23.50383 -6.85714,-1.01556 -1.07143,9.47857 -10,-2.70816 1.28572,-28.96684 29.35714,2.01556 0.42857,-10.31708 z"
         style="fill:#e6f4b7;fill-opacity:1;stroke:#000000;stroke-width:1.26125002;stroke-linecap:butt;stroke-linejoin:miter;stroke-miterlimit:4;stroke-opacity:1;stroke-dasharray:5.045, 1.26125;stroke-dashoffset:0"
         sodipodi:nodetypes="ccccccccccccccccc" />
    </g>
    <g
       id="g3930"
       transform="translate(-3.0304576,-3.0304576)">
      <path
         sodipodi:nodetypes="ccccccccccccc"
         inkscape:connector-curvature="0"
         id="path3904"
         d="m 256.35747,334.07503 -0.88491,25.51846 7.52184,0 0,-8.83973 12.24144,-0.16678 -0.14748,8.33936 5.89948,0.16679 -0.006,-26.02317 -6.14129,0.32923 -0.47192,8.52353 -11.52172,0.1581 -0.0532,-8.00145 z"
         style="fill:#ffffff;fill-opacity:0.84792624;stroke:none" />
      <path
         sodipodi:nodetypes="ccccccccccccc"
         inkscape:connector-curvature="0"
         id="path3906"
         d="m 400.05799,333.85097 0,6.6715 -11.53916,-0.92819 -0.22409,7.50977 11.67466,0.33792 -0.50136,13.76213 -16.96104,-0.50036 0.0354,-4.31478 11.49801,-0.009 0.11803,-4.3495 -11.50399,0.11595 -0.0295,-18.22757 z"
         style="fill:#ffffff;fill-opacity:0.84792624;stroke:none" />
      <path
         sodipodi:nodetypes="ccccccccccccc"
         inkscape:connector-curvature="0"
         id="path3908"
         d="m 351.8716,360.42743 -7.81681,-0.50036 -3.24473,-13.84336 -6.79718,9.04036 -6.32918,-8.70677 -2.80227,13.34299 -7.94659,0.44084 6.93191,-26.81061 4.55683,-0.0238 5.69393,10.89561 5.31064,-10.71146 4.60891,-0.40404 z"
         style="fill:#ffffff;fill-opacity:0.84792624;stroke:none" />
      <path
         sodipodi:nodetypes="ccccccccc"
         inkscape:connector-curvature="0"
         id="path3910"
         d="m 285.79731,332.90752 -0.0412,6.4582 11.3328,-0.67582 -0.5217,21.80629 8.55426,-0.33357 0.7518,-20.96368 11.79897,-0.42782 0.27726,-5.69682 z"
         style="fill:#ffffff;fill-opacity:0.84792624;stroke:none" />
      <path
         sodipodi:nodetypes="ccccccc"
         inkscape:connector-curvature="0"
         id="path3906-1"
         d="m 363.32779,333.28853 0.12005,20.68139 12.47321,0.1223 0.0633,6.43087 -19.88904,-0.50036 0.11806,-26.78459 z"
         style="fill:#ffffff;fill-opacity:0.84792624;stroke:none" />
    </g>
  </g>
</svg>
