<?xml version="1.0" encoding="UTF-8" standalone="no"?>
<!-- Created with Inkscape (http://www.inkscape.org/) -->

<svg
   xmlns:dc="http://purl.org/dc/elements/1.1/"
   xmlns:cc="http://creativecommons.org/ns#"
   xmlns:rdf="http://www.w3.org/1999/02/22-rdf-syntax-ns#"
   xmlns:svg="http://www.w3.org/2000/svg"
   xmlns="http://www.w3.org/2000/svg"
   xmlns:sodipodi="http://sodipodi.sourceforge.net/DTD/sodipodi-0.dtd"
   xmlns:inkscape="http://www.inkscape.org/namespaces/inkscape"
   width="447.3212"
   height="252.20764"
   id="svg2"
   version="1.1"
   inkscape:version="0.48.5 r10040"
   sodipodi:docname="logo.svg">
  <defs
     id="defs4" />
  <sodipodi:namedview
     id="base"
     pagecolor="#ffffff"
     bordercolor="#666666"
     borderopacity="1.0"
     inkscape:pageopacity="0.0"
     inkscape:pageshadow="2"
     inkscape:zoom="0.49497475"
     inkscape:cx="139.20795"
     inkscape:cy="59.708379"
     inkscape:document-units="px"
     inkscape:current-layer="layer1"
     showgrid="false"
     inkscape:window-width="889"
     inkscape:window-height="883"
     inkscape:window-x="0"
     inkscape:window-y="15"
     inkscape:window-maximized="0"
     fit-margin-top="0"
     fit-margin-left="0"
     fit-margin-right="0"
     fit-margin-bottom="0" />
  <metadata
     id="metadata7">
    <rdf:RDF>
      <cc:Work
         rdf:about="">
        <dc:format>image/svg+xml</dc:format>
        <dc:type
           rdf:resource="http://purl.org/dc/dcmitype/StillImage" />
        <dc:title />
      </cc:Work>
    </rdf:RDF>
  </metadata>
  <g
     inkscape:label="Layer 1"
     inkscape:groupmode="layer"
     id="layer1"
     transform="translate(-108.78614,-301.71267)">
    <g
       id="g3828"
       transform="matrix(1.0621972,0,0,0.98899519,-37.457096,-21.333591)">
      <path
         sodipodi:nodetypes="cccccc"
         inkscape:connector-curvature="0"
         id="path2985-0"
         d="m 194.82869,333.33794 305.89014,10e-6 11.60875,191.13523 L 356.79739,581.65491 189.851,522.25235 z"
         style="fill:#803300;stroke:none" />
      <path
         sodipodi:nodetypes="cccccc"
         inkscape:connector-curvature="0"
         id="path2985"
         d="M 190.0523,327.6712 492.70569,326.64088 504.31443,517.77611 353.63937,570.83658 183.45624,515.5553 z"
         style="fill:#ff6600;stroke:none" />
      <path
         sodipodi:nodetypes="cccc"
         inkscape:connector-curvature="0"
         id="path3795"
         d="m 480.71429,329.50504 24.2857,187.14286 -325.71428,-57.14286 c 12.85714,22.68742 311.42857,-91.42857 301.42858,-130 z"
         style="fill:#000000;fill-opacity:0.04608298;stroke:none" />
    </g>
    <g
       id="g3834"
       transform="translate(-10.714287,2.1428587)">
      <path
         inkscape:connector-curvature="0"
         id="path3793"
         d="m 167.85714,488.07647 170,21.42857 184.28571,-18.57143 -244.28571,-60 z"
         style="fill:#000000;fill-opacity:0.13824888;stroke:none" />
      <path
         sodipodi:nodetypes="cccccccccc"
         inkscape:connector-curvature="0"
         id="path3755-0"
         d="m 119.50043,378.07646 14.37686,112.85714 164.98317,1.42857 177.11067,1.42858 85.47058,8.57143 -10.18228,-45.71429 15.5622,-80 -118.99594,-4.28572 -168.47781,-4.28571 z"
         style="fill:#808080;stroke:none" />
      <path
         inkscape:connector-curvature="0"
         id="path3755"
         d="m 130.1996,392.36218 4.37687,35.71428 -2.18844,35.71429 4.37687,21.42857 170.69745,-1.42857 187.11067,5.71429 56.89915,2.85714 -8.75371,-32.85714 9.84792,-78.57143 -106.1388,-2.85715 -252.76353,1.42858 -73.31237,0 z"
         style="fill:#1a1a1a;stroke:none" />
    </g>
    <g
       id="g3895">
      <path
         inkscape:connector-curvature="0"
         id="path3805"
         d="m 138.85714,475.21932 10,-0.35714 8.21429,-37.14286 6.42857,-1.07143 3.92857,10.71429 5.71429,-10.35715 8.92857,1.42858 8.57143,37.85714 c 0,0 5.71428,2.14286 5.35714,0.71428 -0.35714,-1.42857 -11.78571,-84.28571 -11.78571,-84.28571 l -11.42857,-0.35714 -4.64286,35 -4.28572,-37.14286 -16.42857,2.14286 z"
         style="fill:#e6f4b7;fill-opacity:1;stroke:#000000;stroke-width:1.26125002;stroke-linecap:butt;stroke-linejoin:miter;stroke-miterlimit:4;stroke-opacity:1;stroke-dasharray:5.045, 1.26125;stroke-dashoffset:0" />
      <path
         inkscape:connector-curvature="0"
         id="path3807"
         d="m 203.72292,476.86218 c 0,0 8.4861,1.78571 8.4861,0.35714 0,-1.42857 9.2943,-55 9.2943,-55 l 7.67791,-1.07143 -0.40411,56.78572 9.29431,-1.42857 -2.8287,-86.07143 -18.58861,-1.07143 z"
         style="fill:#e6f4b7;fill-opacity:1;stroke:#000000;stroke-width:1.26125002;stroke-linecap:butt;stroke-linejoin:miter;stroke-miterlimit:4;stroke-opacity:1;stroke-dasharray:5.045, 1.26125;stroke-dashoffset:0" />
      <path
         inkscape:connector-curvature="0"
         id="path3809"
         d="m 254.99999,476.6479 9.28572,0.71428 1.78571,-51.78571 4.28571,-0.71429 13.21429,52.85715 15.71429,0.35714 0.35714,-12.5 -10.35714,-0.35714 -15.35715,-49.64286 3.21429,-3.57143 17.85714,4.28572 1.42857,-25 -41.07143,-3.21429 z"
         style="fill:#e6f4b7;fill-opacity:1;stroke:#000000;stroke-width:1.26125002;stroke-linecap:butt;stroke-linejoin:miter;stroke-miterlimit:4;stroke-opacity:1;stroke-dasharray:5.045, 1.26125;stroke-dashoffset:0" />
      <path
         inkscape:connector-curvature="0"
         id="path3811"
         d="m 311.79572,471.93361 24.85153,-0.35714 8.94654,9.28571 9.60926,-2.85714 -12.9228,-13.57143 9.60927,-63.92857 -11.92874,-11.07143 -24.85153,-0.71428 -9.60925,8.57143 z"
         style="fill:#e6f4b7;fill-opacity:1;stroke:#000000;stroke-width:1.26125002;stroke-linecap:butt;stroke-linejoin:miter;stroke-miterlimit:4;stroke-opacity:1;stroke-dasharray:5.045, 1.26125;stroke-dashoffset:0" />
      <path
         inkscape:connector-curvature="0"
         id="path3813"
         d="m 371.52908,392.07647 13.37295,-0.71429 -5.67337,78.21429 27.15113,-0.35714 -4.8629,-78.57143 14.99392,0.71428 2.0262,85 -51.46558,-0.35714 z"
         style="fill:#e6f4b7;fill-opacity:1;stroke:#000000;stroke-width:1.26125002;stroke-linecap:butt;stroke-linejoin:miter;stroke-miterlimit:4;stroke-opacity:1;stroke-dasharray:5.045, 1.26125;stroke-dashoffset:0" />
      <path
         inkscape:connector-curvature="0"
         id="path3815"
         d="m 430.64286,392.44225 0.71428,86.74488 39.64286,0.67505 0.71429,-11.47597 -6.78572,-1.68765 -0.35714,8.43822 -23.57143,-2.3627 0,-35.44051 26.78571,0.67506 1.07143,-12.15103 -26.78571,0 1.42857,-25.31466 32.14286,-3.71281 -1.78572,-8.43822 z"
         style="fill:#e6f4b7;fill-opacity:1;stroke:#000000;stroke-width:1.26125002;stroke-linecap:butt;stroke-linejoin:miter;stroke-miterlimit:4;stroke-opacity:1;stroke-dasharray:5.045, 1.26125;stroke-dashoffset:0" />
      <path
         inkscape:connector-curvature="0"
         id="path3817"
         d="m 484.28572,389.2877 c 0.71428,2.36964 -1.42858,90.72346 -1.42858,90.72346 l 33.57143,2.70817 0.35715,-8.46301 -23.57143,-3.04669 0.71428,-33.175 13.92857,0.67705 -0.35714,4.40076 4.28572,0.33852 1.07142,-22.00383 -5.35714,-1.01556 -1.07143,9.47857 -10,-2.70816 -0.71428,-30.46684 22.85714,1.01556 L 520,387.93362 z"
         style="fill:#e6f4b7;fill-opacity:1;stroke:#000000;stroke-width:1.26125002;stroke-linecap:butt;stroke-linejoin:miter;stroke-miterlimit:4;stroke-opacity:1;stroke-dasharray:5.045, 1.26125;stroke-dashoffset:0" />
    </g>
    <g
       id="g3930"
       transform="translate(-3.0304576,-3.0304576)">
      <path
         sodipodi:nodetypes="ccccccccccccc"
         inkscape:connector-curvature="0"
         id="path3904"
         d="m 257.18478,334.07503 -0.88491,25.51846 7.52184,0 0,-8.83973 12.24144,-0.16678 -0.14748,8.33936 5.89948,0.16679 -0.006,-26.02317 -6.14129,0.32923 -0.47192,8.52353 -11.52172,0.1581 -0.0532,-8.00145 z"
         style="fill:#ffffff;fill-opacity:0.84792624;stroke:none" />
      <path
         sodipodi:nodetypes="ccccccccccccc"
         inkscape:connector-curvature="0"
         id="path3906"
         d="m 400.05799,333.85097 0,6.6715 -11.53916,-0.92819 -0.22409,7.50977 11.67466,0.33792 -0.50136,13.76213 -16.96104,-0.50036 0.0354,-4.31478 11.49801,-0.009 0.11803,-4.3495 -11.50399,0.11595 -0.0295,-18.22757 z"
         style="fill:#ffffff;fill-opacity:0.84792624;stroke:none" />
      <path
         sodipodi:nodetypes="ccccccccccccc"
         inkscape:connector-curvature="0"
         id="path3908"
         d="m 351.8716,360.42743 -7.81681,-0.50036 -3.24473,-13.84336 -6.79718,9.04036 -6.32918,-8.70677 -2.80227,13.34299 -7.94659,0.44084 6.93191,-26.81061 4.55683,-0.0238 5.69393,10.89561 5.31064,-10.71146 4.60891,-0.40404 z"
         style="fill:#ffffff;fill-opacity:0.84792624;stroke:none" />
      <path
         sodipodi:nodetypes="ccccccccc"
         inkscape:connector-curvature="0"
         id="path3910"
         d="m 285.79731,332.90752 -0.0412,6.4582 11.3328,-0.67582 -0.5217,21.80629 8.55426,-0.33357 0.7518,-20.96368 11.79897,-0.42782 0.27726,-5.69682 z"
         style="fill:#ffffff;fill-opacity:0.84792624;stroke:none" />
      <path
         sodipodi:nodetypes="ccccccc"
         inkscape:connector-curvature="0"
         id="path3906-1"
         d="m 363.32779,333.28853 0.12005,20.68139 12.47321,0.1223 0.0633,6.43087 -19.88904,-0.50036 0.11806,-26.78459 z"
         style="fill:#ffffff;fill-opacity:0.84792624;stroke:none" />
    </g>
  </g>
</svg>
